<svg id="Capa_1" enable-background="new 0 0 512 512" height="512" viewBox="0 0 512 512" width="512" xmlns="http://www.w3.org/2000/svg"><g><path d="m506.8 204.395c-3.37-16.441-8.39-32.611-14.92-48.062-6.42-15.171-14.36-29.802-23.6-43.483-9.16-13.56-19.681-26.301-31.261-37.891-11.59-11.581-24.33-22.101-37.89-31.262-13.68-9.24-28.311-17.181-43.48-23.601-15.449-6.53-31.619-11.55-48.06-14.921-33.73-6.9-69.45-6.9-103.18 0-16.44 3.37-32.61 8.391-48.061 14.921-15.17 6.421-29.8 14.361-43.479 23.601-13.559 9.161-26.3 19.681-37.89 31.262-11.58 11.59-22.1 24.331-31.26 37.891-9.24 13.681-17.18 28.311-23.6 43.483-6.54 15.45-11.551 31.621-14.92 48.062-3.449 16.861-5.199 34.222-5.199 51.593 0 17.37 1.75 34.732 5.2 51.592 3.369 16.441 8.38 32.611 14.92 48.062 6.42 15.171 14.359 29.801 23.6 43.482 9.16 13.561 19.68 26.311 31.26 37.892 11.59 11.58 24.33 22.101 37.891 31.261 13.68 9.241 28.31 17.181 43.479 23.601 15.45 6.54 31.62 11.55 48.061 14.921 16.859 3.45 34.22 5.2 51.59 5.2l.02-.05v.051c22.99 0 45.8-3.05 67.79-9.081 21.33-5.85 41.851-14.471 60.98-25.631 2.31-1.34 3.95-3.51 4.63-6.091.68-2.59.32-5.28-1.03-7.59-1.78-3.06-5.1-4.96-8.649-4.96-1.761 0-3.5.47-5.03 1.36-35.88 20.931-76.93 31.992-118.71 31.992-63.03-.01-122.29-24.551-166.88-69.123-44.572-44.592-69.122-103.856-69.122-166.888 0-63.033 24.55-122.296 69.12-166.888 44.59-44.573 103.85-69.124 166.88-69.124 63.02 0 122.29 24.551 166.88 69.123 44.57 44.593 69.12 103.855 69.12 166.889 0 54.503-18.05 105.685-52.19 148.037-1.67 2.08-2.439 4.68-2.16 7.34.29 2.66 1.591 5.04 3.67 6.721 1.771 1.43 4 2.22 6.271 2.22 3.04 0 5.88-1.36 7.79-3.73 17.96-22.261 31.95-47.142 41.59-73.964 9.97-27.751 15.03-56.892 15.03-86.624-.001-17.371-1.751-34.732-5.201-51.593z"/><path d="m256 45.977c-115.794 0-210 94.21-210 210.01s94.206 210.01 210 210.01 210-94.21 210-210.01-94.206-210.01-210-210.01zm0 400.02c-104.767 0-190-85.238-190-190.009s85.233-190.01 190-190.01 190 85.238 190 190.009-85.233 190.01-190 190.01z"/><circle cx="390" cy="229.986" r="10"/><circle cx="266" cy="329.991" r="10"/><circle cx="200" cy="269.988" r="10"/><path d="m340 289.989c-19.299 0-35 15.702-35 35.002s15.701 35.002 35 35.002 35-15.702 35-35.002-15.701-35.002-35-35.002zm0 50.003c-8.271 0-15-6.729-15-15.001 0-8.271 6.729-15.001 15-15.001s15 6.729 15 15.001c0 8.271-6.729 15.001-15 15.001z"/><path d="m200 334.991c-19.299 0-35 15.702-35 35.002s15.701 35.002 35 35.002 35-15.702 35-35.002-15.701-35.002-35-35.002zm0 50.003c-8.271 0-15-6.729-15-15.001s6.729-15.001 15-15.001 15 6.729 15 15.001-6.729 15.001-15 15.001z"/><path d="m126 220.986c-19.299 0-35 15.702-35 35.002s15.701 35.002 35 35.002 35-15.702 35-35.002-15.701-35.002-35-35.002zm0 50.002c-8.271 0-15-6.729-15-15.001s6.729-15.001 15-15.001 15 6.729 15 15.001-6.729 15.001-15 15.001z"/><path d="m326 164.983c0-38.6-31.402-70.003-70-70.003s-70 31.403-70 70.003 31.402 70.003 70 70.003 70-31.403 70-70.003zm-120 0c0-27.572 22.43-50.002 50-50.002s50 22.431 50 50.002-22.43 50.002-50 50.002-50-22.43-50-50.002z"/><circle cx="416.338" cy="442.577" r="10"/></g></svg>